<?xml version='1.0' encoding='utf-8'?>
<svg xmlns="http://www.w3.org/2000/svg" width="1024" height="1024" viewBox="57 56 890 890" fill="none">
<path d="M500.997 585.032C503.371 609.25 501.843 643.92 499.733 668.564C497.402 690.276 477.031 712.445 454.559 712.875C383.658 714.235 311.571 723.103 268.652 656.071C259.356 641.428 253.171 625.03 250.478 607.896C247.159 586.242 248.378 508.436 248.597 483.093C248.859 452.443 246.037 367.338 251.72 341.843C264.411 305.499 305.587 272.543 345.032 297.266C362.185 308.015 385.506 335.096 400.591 350.438L492.748 444.472C480.953 470.689 457.479 489.811 428.767 495.485C420.014 497.214 416.117 494.349 409.654 498.983C415.371 508.897 489.592 497.736 500.997 585.032ZM755.737 518.907C755.474 549.557 758.296 634.662 752.614 660.157C739.923 696.501 698.748 729.457 659.303 704.735C642.15 693.986 618.829 666.905 603.744 651.562L511.586 557.528C523.38 531.311 546.856 512.189 575.567 506.515C584.321 504.786 588.217 507.651 594.68 503.017C588.961 493.104 514.741 504.263 503.337 416.968C500.962 392.75 502.492 358.081 504.601 333.437C506.932 311.725 527.304 289.555 549.775 289.125C620.676 287.765 692.764 278.898 735.682 345.93C744.979 360.573 751.164 376.971 753.856 394.104C757.175 415.76 755.956 493.564 755.737 518.907Z" fill="url(#paint0_linear_5_26)" />
<mask id="mask0_5_26" style="mask-type:alpha" maskUnits="userSpaceOnUse" x="247" y="288" width="510" height="426">
<path d="M500.872 585.032C503.247 609.25 501.719 643.92 499.609 668.565C497.278 690.276 476.906 712.445 454.435 712.875C383.534 714.235 311.447 723.102 268.528 656.071C259.231 641.427 253.046 625.031 250.354 607.897C247.035 586.242 248.253 508.436 248.472 483.093C248.735 452.443 245.913 367.338 251.595 341.843C264.287 305.499 305.461 272.544 344.907 297.266C362.06 308.015 385.381 335.096 400.466 350.439L492.623 444.472C480.829 470.689 457.354 489.811 428.643 495.486C419.889 497.215 415.992 494.349 409.53 498.984C415.246 508.897 489.468 497.736 500.872 585.032ZM755.613 518.907C755.35 549.557 758.172 634.662 752.49 660.157C739.798 696.501 698.624 729.457 659.178 704.735C642.025 693.985 618.705 666.904 603.619 651.562L511.461 557.529C523.256 531.311 546.731 512.189 575.443 506.515C584.196 504.786 588.092 507.652 594.555 503.017C588.838 493.104 514.616 504.264 503.212 416.968C500.838 392.75 502.367 358.081 504.477 333.437C506.808 311.725 527.178 289.556 549.65 289.125C620.551 287.766 692.639 278.898 735.558 345.93C744.854 360.573 751.038 376.97 753.731 394.104C757.05 415.758 755.832 493.564 755.613 518.907Z" fill="url(#paint1_linear_5_26)" />
</mask>
<g mask="url(#mask0_5_26)">
<g filter="url(#filter0_f_5_26)">
<path d="M243.619 404.157C143.264 427.316 127.467 355.909 132.113 317.311C120.855 289.792 105.095 234.754 132.113 234.754C165.887 234.754 272.568 234.754 325.64 200.98C378.713 167.207 378.713 191.331 514.343 234.754C649.973 278.177 552.941 254.053 616.199 317.311C679.457 380.569 596.9 404.157 552.941 472.24C508.982 540.323 485.394 477.065 417.847 404.157C350.3 331.249 369.063 375.208 243.619 404.157Z" fill="#D6C4F9" />
</g>
<g filter="url(#filter1_f_5_26)">
<path d="M374.456 597.916C274.076 608.122 258.275 576.652 262.922 559.642C251.662 547.514 235.897 523.258 262.922 523.258C296.704 523.258 403.412 523.258 456.498 508.374C509.584 493.489 509.584 504.121 645.249 523.258C780.913 542.395 683.857 531.763 747.131 559.642C810.405 587.52 727.827 597.916 683.857 627.921C639.886 657.926 616.293 630.047 548.729 597.916C481.165 565.785 499.932 585.158 374.456 597.916Z" fill="#75BFFB" />
</g>
</g>
<defs>
<filter id="filter0_f_5_26" x="9.65587" y="77.5325" width="737.094" height="531.345" filterUnits="userSpaceOnUse" color-interpolation-filters="sRGB">
<feFlood flood-opacity="0" result="BackgroundImageFix" />
<feBlend mode="normal" in="SourceGraphic" in2="BackgroundImageFix" result="shape" />
<feGaussianBlur stdDeviation="53.7695" result="effect1_foregroundBlur_5_26" />
</filter>
<filter id="filter1_f_5_26" x="154.399" y="407.762" width="709.349" height="326.584" filterUnits="userSpaceOnUse" color-interpolation-filters="sRGB">
<feFlood flood-opacity="0" result="BackgroundImageFix" />
<feBlend mode="normal" in="SourceGraphic" in2="BackgroundImageFix" result="shape" />
<feGaussianBlur stdDeviation="46.8004" result="effect1_foregroundBlur_5_26" />
</filter>
<linearGradient id="paint0_linear_5_26" x1="502.167" y1="-221.352" x2="502.167" y2="714" gradientUnits="userSpaceOnUse">
<stop stop-color="#BCBEFA" />
<stop offset="0.5" stop-color="#98A4FD" />
<stop offset="0.75" stop-color="#7C9CFE" />
<stop offset="1" stop-color="#173AD1" />
</linearGradient>
<linearGradient id="paint1_linear_5_26" x1="502.042" y1="-221.351" x2="502.042" y2="714" gradientUnits="userSpaceOnUse">
<stop stop-color="#BCBEFA" />
<stop offset="0.5" stop-color="#98A4FD" />
<stop offset="0.75" stop-color="#7C9CFE" />
<stop offset="1" stop-color="#173AD1" />
</linearGradient>
</defs>
</svg>